<svg width="21" height="22" viewBox="0 0 21 22" fill="none" xmlns="http://www.w3.org/2000/svg">
<g id="date_range">
<mask id="mask0_58_2471" style="mask-type:alpha" maskUnits="userSpaceOnUse" x="0" y="0" width="21" height="22">
<rect id="Bounding box" y="0.5" width="21" height="21" fill="#D9D9D9"/>
</mask>
<g mask="url(#mask0_58_2471)">
<path id="date_range_2" d="M7 12.7499C6.75208 12.7499 6.54427 12.666 6.37656 12.4983C6.20885 12.3306 6.125 12.1228 6.125 11.8749C6.125 11.627 6.20885 11.4191 6.37656 11.2514C6.54427 11.0837 6.75208 10.9999 7 10.9999C7.24792 10.9999 7.45573 11.0837 7.62344 11.2514C7.79115 11.4191 7.875 11.627 7.875 11.8749C7.875 12.1228 7.79115 12.3306 7.62344 12.4983C7.45573 12.666 7.24792 12.7499 7 12.7499ZM10.5 12.7499C10.2521 12.7499 10.0443 12.666 9.87656 12.4983C9.70885 12.3306 9.625 12.1228 9.625 11.8749C9.625 11.627 9.70885 11.4191 9.87656 11.2514C10.0443 11.0837 10.2521 10.9999 10.5 10.9999C10.7479 10.9999 10.9557 11.0837 11.1234 11.2514C11.2911 11.4191 11.375 11.627 11.375 11.8749C11.375 12.1228 11.2911 12.3306 11.1234 12.4983C10.9557 12.666 10.7479 12.7499 10.5 12.7499ZM14 12.7499C13.7521 12.7499 13.5443 12.666 13.3766 12.4983C13.2089 12.3306 13.125 12.1228 13.125 11.8749C13.125 11.627 13.2089 11.4191 13.3766 11.2514C13.5443 11.0837 13.7521 10.9999 14 10.9999C14.2479 10.9999 14.4557 11.0837 14.6234 11.2514C14.7911 11.4191 14.875 11.627 14.875 11.8749C14.875 12.1228 14.7911 12.3306 14.6234 12.4983C14.4557 12.666 14.2479 12.7499 14 12.7499ZM4.375 19.7499C3.89375 19.7499 3.48177 19.5785 3.13906 19.2358C2.79635 18.8931 2.625 18.4811 2.625 17.9999V5.74988C2.625 5.26863 2.79635 4.85665 3.13906 4.51394C3.48177 4.17123 3.89375 3.99988 4.375 3.99988H5.25V2.24988H7V3.99988H14V2.24988H15.75V3.99988H16.625C17.1062 3.99988 17.5182 4.17123 17.8609 4.51394C18.2036 4.85665 18.375 5.26863 18.375 5.74988V17.9999C18.375 18.4811 18.2036 18.8931 17.8609 19.2358C17.5182 19.5785 17.1062 19.7499 16.625 19.7499H4.375ZM4.375 17.9999H16.625V9.24988H4.375V17.9999ZM4.375 7.49988H16.625V5.74988H4.375V7.49988Z" fill="#8792A2"/>
</g>
</g>
</svg>
