<svg xmlns="http://www.w3.org/2000/svg" width="19" height="19" viewBox="0 0 19 19" fill="none">
  <mask id="mask0_58_1820" style="mask-type:alpha" maskUnits="userSpaceOnUse" x="0" y="0" width="19" height="19">
    <rect x="0.244141" y="0.418579" width="18.0698" height="18.0698" fill="#D9D9D9"/>
  </mask>
  <g mask="url(#mask0_58_1820)">
    <path d="M8.48854 12.051L11.1049 9.43462C11.2555 9.28404 11.4374 9.20875 11.6508 9.20875C11.8641 9.20875 12.046 9.28404 12.1966 9.43462C12.3472 9.58521 12.4225 9.76716 12.4225 9.98048C12.4225 10.1938 12.3472 10.3758 12.1966 10.5263L9.01558 13.7074C8.86499 13.858 8.68932 13.9332 8.48854 13.9332C8.28777 13.9332 8.11209 13.858 7.96151 13.7074L6.36158 12.1074C6.211 11.9569 6.13571 11.7749 6.13571 11.5616C6.13571 11.3483 6.211 11.1663 6.36158 11.0157C6.51216 10.8651 6.69411 10.7899 6.90744 10.7899C7.12076 10.7899 7.30271 10.8651 7.45329 11.0157L8.48854 12.051ZM4.00874 16.9825C3.59464 16.9825 3.24015 16.8351 2.94526 16.5402C2.65037 16.2453 2.50293 15.8908 2.50293 15.4767V4.93601C2.50293 4.52191 2.65037 4.16741 2.94526 3.87252C3.24015 3.57764 3.59464 3.43019 4.00874 3.43019H4.76165V2.67728C4.76165 2.46396 4.8338 2.28515 4.97811 2.14084C5.12242 1.99653 5.30123 1.92438 5.51456 1.92438C5.72788 1.92438 5.9067 1.99653 6.051 2.14084C6.19531 2.28515 6.26746 2.46396 6.26746 2.67728V3.43019H12.2907V2.67728C12.2907 2.46396 12.3629 2.28515 12.5072 2.14084C12.6515 1.99653 12.8303 1.92438 13.0436 1.92438C13.257 1.92438 13.4358 1.99653 13.5801 2.14084C13.7244 2.28515 13.7965 2.46396 13.7965 2.67728V3.43019H14.5494C14.9635 3.43019 15.318 3.57764 15.6129 3.87252C15.9078 4.16741 16.0553 4.52191 16.0553 4.93601V15.4767C16.0553 15.8908 15.9078 16.2453 15.6129 16.5402C15.318 16.8351 14.9635 16.9825 14.5494 16.9825H4.00874ZM4.00874 15.4767H14.5494V7.94763H4.00874V15.4767ZM4.00874 6.44182H14.5494V4.93601H4.00874V6.44182Z" fill="#1C1B1F"/>
  </g>
</svg>