<svg xmlns="http://www.w3.org/2000/svg" width="19" height="19" viewBox="0 0 19 19" fill="none">
  <mask id="mask0_58_1826" style="mask-type:alpha" maskUnits="userSpaceOnUse" x="0" y="0" width="19" height="19">
    <rect x="0.430176" y="0.418579" width="18.0698" height="18.0698" fill="#D9D9D9"/>
  </mask>
  <g mask="url(#mask0_58_1826)">
    <path d="M7.73344 14.4979L6.67937 13.4439L8.41106 11.7122L6.67937 9.98048L7.73344 8.92641L9.46513 10.6581L11.1968 8.92641L12.2509 9.98048L10.5192 11.7122L12.2509 13.4439L11.1968 14.4979L9.46513 12.7662L7.73344 14.4979ZM4.19478 16.9825C3.78068 16.9825 3.42619 16.8351 3.1313 16.5402C2.83641 16.2453 2.68896 15.8908 2.68896 15.4767V4.93601C2.68896 4.52191 2.83641 4.16741 3.1313 3.87252C3.42619 3.57764 3.78068 3.43019 4.19478 3.43019H4.94769V1.92438H6.4535V3.43019H12.4768V1.92438H13.9826V3.43019H14.7355C15.1496 3.43019 15.5041 3.57764 15.799 3.87252C16.0938 4.16741 16.2413 4.52191 16.2413 4.93601V15.4767C16.2413 15.8908 16.0938 16.2453 15.799 16.5402C15.5041 16.8351 15.1496 16.9825 14.7355 16.9825H4.19478ZM4.19478 15.4767H14.7355V7.94763H4.19478V15.4767ZM4.19478 6.44182H14.7355V4.93601H4.19478V6.44182Z" fill="#1C1B1F"/>
  </g>
</svg>