<svg xmlns="http://www.w3.org/2000/svg" width="19" height="19" viewBox="0 0 19 19" fill="none">
  <mask id="mask0_58_1838" style="mask-type:alpha" maskUnits="userSpaceOnUse" x="0" y="0" width="19" height="19">
    <rect x="0.802246" y="0.418579" width="18.0698" height="18.0698" fill="#D9D9D9"/>
  </mask>
  <g mask="url(#mask0_58_1838)">
    <path d="M6.0726 16.9825V13.9709H0.802246L3.70094 9.45345H2.30806L7.57841 1.92438L9.83713 5.16188L12.0959 1.92438L17.3662 9.45345H15.9733L18.872 13.9709H13.6017V16.9825H10.59V13.9709H9.08422V16.9825H6.0726ZM13.3946 12.4651H16.1239L13.2064 7.94763H14.4675L12.0959 4.55955L10.7594 6.46064L12.8488 9.45345H11.4559L13.3946 12.4651ZM3.55036 12.4651H11.6065L8.68895 7.94763H9.95007L7.57841 4.55955L5.20675 7.94763H6.46787L3.55036 12.4651ZM3.55036 12.4651H6.46787H5.20675H9.95007H8.68895H11.6065H3.55036ZM13.3946 12.4651H11.4559H12.8488H10.7594H14.4675H13.2064H16.1239H13.3946Z" fill="#1C1B1F"/>
  </g>
</svg>