<svg xmlns="http://www.w3.org/2000/svg" width="19" height="19" viewBox="0 0 19 19" fill="none">
  <mask id="mask0_58_1850" style="mask-type:alpha" maskUnits="userSpaceOnUse" x="0" y="0" width="19" height="19">
    <rect x="0.0812988" y="0.418579" width="18.0698" height="18.0698" fill="#D9D9D9"/>
  </mask>
  <g mask="url(#mask0_58_1850)">
    <path d="M3.46943 8.70056C3.14317 8.70056 2.87337 8.5939 2.66005 8.38058C2.44673 8.16725 2.34007 7.89746 2.34007 7.5712C2.34007 7.24494 2.44673 6.97515 2.66005 6.76183C2.87337 6.5485 3.14317 6.44184 3.46943 6.44184C3.79569 6.44184 4.06548 6.5485 4.2788 6.76183C4.49212 6.97515 4.59879 7.24494 4.59879 7.5712C4.59879 7.89746 4.49212 8.16725 4.2788 8.38058C4.06548 8.5939 3.79569 8.70056 3.46943 8.70056ZM2.34007 16.9825V13.218H1.58716V10.2064C1.58716 9.99305 1.65931 9.81424 1.80362 9.66993C1.94793 9.52562 2.12674 9.45347 2.34007 9.45347H4.59879C4.81211 9.45347 4.99093 9.52562 5.13523 9.66993C5.27954 9.81424 5.35169 9.99305 5.35169 10.2064V13.218H4.59879V15.4767H10.622V11.7122H9.30445C8.41351 11.7122 7.65747 11.4016 7.03632 10.7805C6.41517 10.1593 6.1046 9.40328 6.1046 8.51234C6.1046 7.84727 6.28342 7.25435 6.64105 6.73359C6.99868 6.21283 7.45983 5.82697 8.02451 5.576C8.16255 4.76035 8.54214 4.07332 9.16328 3.51492C9.78443 2.95651 10.5217 2.67731 11.3749 2.67731C12.2282 2.67731 12.9655 2.95651 13.5866 3.51492C14.2078 4.07332 14.5874 4.76035 14.7254 5.576C15.2901 5.82697 15.7512 6.21283 16.1089 6.73359C16.4665 7.25435 16.6453 7.84727 16.6453 8.51234C16.6453 9.40328 16.3347 10.1593 15.7136 10.7805C15.0924 11.4016 14.3364 11.7122 13.4454 11.7122H12.1279V15.4767H15.8924V16.9825H2.34007ZM9.30445 10.2064H13.4454C13.9223 10.2064 14.3238 10.0432 14.6501 9.71699C14.9764 9.39073 15.1395 8.98918 15.1395 8.51234C15.1395 8.17353 15.0485 7.86609 14.8666 7.59003C14.6846 7.31396 14.4368 7.10691 14.1231 6.96888L13.3325 6.63007L13.2196 5.80187C13.1443 5.33758 12.9341 4.95171 12.589 4.64428C12.2439 4.33684 11.8392 4.18312 11.3749 4.18312C10.9107 4.18312 10.506 4.33684 10.1609 4.64428C9.8158 4.95171 9.60562 5.33758 9.53033 5.80187L9.41739 6.63007L8.62684 6.96888C8.31313 7.10691 8.0653 7.31396 7.88334 7.59003C7.70139 7.86609 7.61041 8.17353 7.61041 8.51234C7.61041 8.98918 7.77354 9.39073 8.0998 9.71699C8.42606 10.0432 8.82761 10.2064 9.30445 10.2064Z" fill="#1C1B1F"/>
  </g>
</svg>